<?xml version="1.0" encoding="UTF-8" standalone="no"?>
<svg
   width="24"
   height="24"
   viewBox="0 0 24 24"
   version="1.1"
   id="svg11"
   sodipodi:docname="xamarin.svg"
   inkscape:version="1.1.1 (3bf5ae0d25, 2021-09-20)"
   xmlns:inkscape="http://www.inkscape.org/namespaces/inkscape"
   xmlns:sodipodi="http://sodipodi.sourceforge.net/DTD/sodipodi-0.dtd"
   xmlns="http://www.w3.org/2000/svg"
   xmlns:svg="http://www.w3.org/2000/svg"
   xmlns:rdf="http://www.w3.org/1999/02/22-rdf-syntax-ns#"
   xmlns:cc="http://creativecommons.org/ns#"
   xmlns:dc="http://purl.org/dc/elements/1.1/"
   xmlns:sketch="http://www.bohemiancoding.com/sketch/ns">
  <sodipodi:namedview
     id="namedview13"
     pagecolor="#505050"
     bordercolor="#ffffff"
     borderopacity="1"
     inkscape:pageshadow="0"
     inkscape:pageopacity="0"
     inkscape:pagecheckerboard="1"
     showgrid="false"
     showborder="false"
     inkscape:showpageshadow="false"
     inkscape:snap-page="true"
     inkscape:snap-bbox="true"
     inkscape:bbox-nodes="true"
     inkscape:zoom="13.113617"
     inkscape:cx="14.259987"
     inkscape:cy="12.010417"
     inkscape:window-width="1920"
     inkscape:window-height="1027"
     inkscape:window-x="3832"
     inkscape:window-y="-8"
     inkscape:window-maximized="1"
     inkscape:current-layer="xamarin-logo" />
  <!-- Generator: Sketch 3.2 (9961) - http://www.bohemiancoding.com/sketch -->
  <title
     id="title2">xamarin-logo</title>
  <desc
     id="desc4">Created with Sketch.</desc>
  <defs
     id="defs6" />
  <g
     id="Page-1"
     stroke="none"
     stroke-width="1"
     fill="none"
     fill-rule="evenodd"
     sketch:type="MSPage"
     transform="translate(-42,-56)">
    <g
       id="xamarin-logo"
       sketch:type="MSArtboardGroup"
       fill="#3498db">
      <rect
         style="fill:#ffffff;stroke:none;stroke-width:0.15"
         id="rect953"
         width="13.726191"
         height="13.268651"
         x="47.414219"
         y="61.185448" />
      <path
         d="m 48.924968,57.294117 c -0.648189,0.0014 -1.282693,0.370304 -1.608995,0.933113 l -5.075057,8.839654 c -0.321221,0.564316 -0.321221,1.301916 0,1.866231 l 5.075057,8.839654 c 0.326337,0.562814 0.960806,0.931837 1.608995,0.933114 h 10.150079 c 0.648188,-0.0014 1.282657,-0.3703 1.608993,-0.933114 l 5.075056,-8.839654 c 0.321222,-0.564316 0.321189,-1.301916 0,-1.866231 L 60.68404,58.22723 c -0.326336,-0.562809 -0.960805,-0.931838 -1.608993,-0.933113 z m 0.09211,5.171304 c 0.01394,-0.0014 0.02857,-0.0014 0.04255,0 h 1.750736 c 0.0775,0.0016 0.15267,0.04652 0.191371,0.113966 l 2.969913,5.306645 c 0.01495,0.02624 0.02458,0.05547 0.02824,0.08547 0.0037,-0.03001 0.01328,-0.05924 0.02824,-0.08547 l 2.962806,-5.306645 c 0.03993,-0.06949 0.118621,-0.11465 0.198445,-0.113966 h 1.750736 c 0.155031,0.0014 0.271127,0.197168 0.19848,0.334783 l -2.898993,5.199798 2.898993,5.192673 c 0.07952,0.138404 -0.03943,0.343272 -0.19848,0.341903 h -1.750736 c -0.08122,-7.06e-4 -0.160377,-0.04897 -0.198445,-0.121089 l -2.962806,-5.306645 c -0.01495,-0.02624 -0.02458,-0.05547 -0.02824,-0.08548 -0.0037,0.03001 -0.01328,0.05925 -0.02824,0.08548 l -2.969913,5.306645 c -0.03694,0.07008 -0.112511,0.117898 -0.191371,0.121089 h -1.750736 c -0.159049,0.0014 -0.277971,-0.203498 -0.198447,-0.341903 l 2.898992,-5.192673 -2.898992,-5.199798 c -0.06949,-0.125558 0.01529,-0.307983 0.155893,-0.334783 z"
         id="Logo"
         sketch:type="MSShapeGroup"
         sodipodi:nodetypes="ccccccccccccccccccccccccccccccccccccccc"
         style="stroke-width:0.235294" />
    </g>
  </g>
  <metadata
     id="metadata830">
    <rdf:RDF>
      <cc:Work
         rdf:about="">
        <dc:title>xamarin-logo</dc:title>
      </cc:Work>
    </rdf:RDF>
  </metadata>
</svg>
